<svg width="95" height="47" viewBox="0 0 95 47" fill="none" xmlns="http://www.w3.org/2000/svg">
<path d="M0.71625 46.192V44.592L1.99625 44.464C3.48958 44.2933 4.62025 44.08 5.38825 43.824C6.19892 43.5253 6.75358 42.928 7.05225 42.032C7.39358 41.0933 7.56425 39.5787 7.56425 37.488V9.072C7.56425 6.93866 7.41492 5.424 7.11625 4.528C6.81758 3.632 6.26292 3.056 5.45225 2.8C4.68425 2.50133 3.55358 2.26666 2.06025 2.096L0.78025 1.968V0.367996L10.2523 0.559998H19.2763C25.0363 0.559998 29.9003 1.328 33.8683 2.864C37.8789 4.4 40.9296 6.832 43.0203 10.16C45.1109 13.4453 46.1563 17.7547 46.1563 23.088C46.1563 26.8853 45.5163 30.2133 44.2363 33.072C42.9563 35.9307 41.2069 38.32 38.9883 40.24C36.7696 42.16 34.2309 43.6107 31.3723 44.592C28.5563 45.5307 25.5909 46 22.4763 46H10.1883L0.71625 46.192ZM17.2923 44.08H22.7323C27.9376 44.08 32.1189 42.3947 35.2763 39.024C38.4336 35.6107 40.0123 30.3413 40.0123 23.216C40.0123 18.864 39.3936 15.152 38.1562 12.08C36.9616 8.96533 34.9776 6.59733 32.2043 4.976C29.4736 3.312 25.7829 2.48 21.1323 2.48H13.0683V36.656C13.0683 37.8933 13.1536 39.088 13.3243 40.24C13.4949 41.3493 13.8789 42.2667 14.4763 42.992C15.0736 43.7173 16.0123 44.08 17.2923 44.08ZM69.6903 46.64L52.9223 7.152C52.3676 5.82933 51.6636 4.76267 50.8103 3.952C49.9996 3.09866 48.8049 2.52266 47.2263 2.224L45.9462 1.968V0.367996L55.4823 0.559998L65.0183 0.367996V1.968L63.0983 2.16C61.7756 2.288 60.7089 2.62933 59.8983 3.184C59.1303 3.696 58.7463 4.48533 58.7463 5.552C58.7463 6.32 58.9809 7.28 59.4503 8.432L72.3783 39.088L84.7943 8.368C85.0503 7.77066 85.2209 7.23733 85.3063 6.768C85.4343 6.256 85.4983 5.808 85.4983 5.424C85.4983 4.4 85.1569 3.65333 84.4743 3.184C83.7916 2.672 82.8529 2.352 81.6583 2.224L79.4183 1.968V0.367996L88.3783 0.559998L94.7783 0.367996V1.904L93.3063 2.224C91.6849 2.56533 90.4263 3.22666 89.5303 4.208C88.6343 5.18933 87.8236 6.59733 87.0983 8.432L71.7383 46.64H69.6903Z" fill="white"/>
</svg>
